<mxfile host="app.diagrams.net" agent="Mozilla/5.0 (Macintosh; Intel Mac OS X 10_15_7) AppleWebKit/537.36 (KHTML, like Gecko) Chrome/131.0.0.0 Safari/537.36" version="26.0.3">
  <diagram name="Page-1" id="1naKTBojAY555ZNwgkgj">
    <mxGraphModel dx="5131" dy="2773" grid="1" gridSize="10" guides="1" tooltips="1" connect="1" arrows="1" fold="1" page="1" pageScale="1" pageWidth="850" pageHeight="1100" math="0" shadow="0">
      <root>
        <mxCell id="0" />
        <mxCell id="1" parent="0" />
        <mxCell id="Pb9EnYuBDf2e-PehNu_Y-18" value="" style="group" parent="1" vertex="1" connectable="0">
          <mxGeometry x="-2160" y="-850" width="690" height="490" as="geometry" />
        </mxCell>
        <mxCell id="Pb9EnYuBDf2e-PehNu_Y-6" value="" style="rounded=0;whiteSpace=wrap;html=1;container=0;" parent="Pb9EnYuBDf2e-PehNu_Y-18" vertex="1">
          <mxGeometry width="690" height="490" as="geometry" />
        </mxCell>
        <mxCell id="Pb9EnYuBDf2e-PehNu_Y-9" value="&lt;span style=&quot;font-size: 32px;&quot;&gt;Register Form&lt;/span&gt;" style="text;html=1;align=center;verticalAlign=middle;resizable=0;points=[];autosize=1;strokeColor=none;fillColor=none;container=0;" parent="Pb9EnYuBDf2e-PehNu_Y-18" vertex="1">
          <mxGeometry x="230" y="40" width="230" height="50" as="geometry" />
        </mxCell>
        <mxCell id="Pb9EnYuBDf2e-PehNu_Y-10" value="&lt;span style=&quot;font-size: 32px;&quot;&gt;Name:&amp;nbsp;&lt;/span&gt;" style="text;html=1;align=center;verticalAlign=middle;resizable=0;points=[];autosize=1;strokeColor=none;fillColor=none;container=0;" parent="Pb9EnYuBDf2e-PehNu_Y-18" vertex="1">
          <mxGeometry x="30" y="140" width="130" height="50" as="geometry" />
        </mxCell>
        <mxCell id="Pb9EnYuBDf2e-PehNu_Y-11" value="&lt;span style=&quot;font-size: 32px;&quot;&gt;Password&lt;/span&gt;" style="text;html=1;align=center;verticalAlign=middle;resizable=0;points=[];autosize=1;strokeColor=none;fillColor=none;container=0;" parent="Pb9EnYuBDf2e-PehNu_Y-18" vertex="1">
          <mxGeometry x="20" y="290" width="160" height="50" as="geometry" />
        </mxCell>
        <mxCell id="Pb9EnYuBDf2e-PehNu_Y-13" value="" style="rounded=1;whiteSpace=wrap;html=1;container=0;" parent="Pb9EnYuBDf2e-PehNu_Y-18" vertex="1">
          <mxGeometry x="200" y="135" width="390" height="60" as="geometry" />
        </mxCell>
        <mxCell id="Pb9EnYuBDf2e-PehNu_Y-14" value="" style="rounded=1;whiteSpace=wrap;html=1;container=0;" parent="Pb9EnYuBDf2e-PehNu_Y-18" vertex="1">
          <mxGeometry x="200" y="280" width="390" height="60" as="geometry" />
        </mxCell>
        <mxCell id="Pb9EnYuBDf2e-PehNu_Y-16" value="&lt;font style=&quot;font-size: 32px;&quot;&gt;Back&lt;/font&gt;" style="rounded=1;whiteSpace=wrap;html=1;container=0;" parent="Pb9EnYuBDf2e-PehNu_Y-18" vertex="1">
          <mxGeometry x="200" y="390" width="180" height="60" as="geometry" />
        </mxCell>
        <mxCell id="Pb9EnYuBDf2e-PehNu_Y-17" value="&lt;span style=&quot;font-size: 32px;&quot;&gt;Enter&lt;/span&gt;" style="rounded=1;whiteSpace=wrap;html=1;container=0;" parent="Pb9EnYuBDf2e-PehNu_Y-18" vertex="1">
          <mxGeometry x="410" y="390" width="180" height="60" as="geometry" />
        </mxCell>
        <mxCell id="Pb9EnYuBDf2e-PehNu_Y-20" value="" style="group" parent="1" vertex="1" connectable="0">
          <mxGeometry x="1160" y="-910" width="690" height="490" as="geometry" />
        </mxCell>
        <mxCell id="Pb9EnYuBDf2e-PehNu_Y-21" value="" style="rounded=0;whiteSpace=wrap;html=1;container=0;" parent="Pb9EnYuBDf2e-PehNu_Y-20" vertex="1">
          <mxGeometry width="690" height="490" as="geometry" />
        </mxCell>
        <mxCell id="Pb9EnYuBDf2e-PehNu_Y-22" value="&lt;span style=&quot;font-size: 32px;&quot;&gt;Login Form&lt;/span&gt;" style="text;html=1;align=center;verticalAlign=middle;resizable=0;points=[];autosize=1;strokeColor=none;fillColor=none;container=0;" parent="Pb9EnYuBDf2e-PehNu_Y-20" vertex="1">
          <mxGeometry x="250" y="40" width="190" height="50" as="geometry" />
        </mxCell>
        <mxCell id="Pb9EnYuBDf2e-PehNu_Y-23" value="&lt;span style=&quot;font-size: 32px;&quot;&gt;Name:&amp;nbsp;&lt;/span&gt;" style="text;html=1;align=center;verticalAlign=middle;resizable=0;points=[];autosize=1;strokeColor=none;fillColor=none;container=0;" parent="Pb9EnYuBDf2e-PehNu_Y-20" vertex="1">
          <mxGeometry x="30" y="140" width="130" height="50" as="geometry" />
        </mxCell>
        <mxCell id="Pb9EnYuBDf2e-PehNu_Y-24" value="&lt;span style=&quot;font-size: 32px;&quot;&gt;Password&lt;/span&gt;" style="text;html=1;align=center;verticalAlign=middle;resizable=0;points=[];autosize=1;strokeColor=none;fillColor=none;container=0;" parent="Pb9EnYuBDf2e-PehNu_Y-20" vertex="1">
          <mxGeometry x="20" y="290" width="160" height="50" as="geometry" />
        </mxCell>
        <mxCell id="Pb9EnYuBDf2e-PehNu_Y-25" value="" style="rounded=1;whiteSpace=wrap;html=1;container=0;" parent="Pb9EnYuBDf2e-PehNu_Y-20" vertex="1">
          <mxGeometry x="200" y="135" width="390" height="60" as="geometry" />
        </mxCell>
        <mxCell id="Pb9EnYuBDf2e-PehNu_Y-26" value="" style="rounded=1;whiteSpace=wrap;html=1;container=0;" parent="Pb9EnYuBDf2e-PehNu_Y-20" vertex="1">
          <mxGeometry x="200" y="280" width="390" height="60" as="geometry" />
        </mxCell>
        <mxCell id="Pb9EnYuBDf2e-PehNu_Y-27" value="&lt;font style=&quot;font-size: 32px;&quot;&gt;Back&lt;/font&gt;" style="rounded=1;whiteSpace=wrap;html=1;container=0;" parent="Pb9EnYuBDf2e-PehNu_Y-20" vertex="1">
          <mxGeometry x="200" y="360" width="180" height="60" as="geometry" />
        </mxCell>
        <mxCell id="Pb9EnYuBDf2e-PehNu_Y-28" value="&lt;span style=&quot;font-size: 32px;&quot;&gt;Enter&lt;/span&gt;" style="rounded=1;whiteSpace=wrap;html=1;container=0;" parent="Pb9EnYuBDf2e-PehNu_Y-20" vertex="1">
          <mxGeometry x="410" y="360" width="180" height="60" as="geometry" />
        </mxCell>
        <mxCell id="Pb9EnYuBDf2e-PehNu_Y-29" value="&lt;u style=&quot;&quot;&gt;&lt;font style=&quot;font-size: 16px;&quot;&gt;Forgetpass&lt;/font&gt;&lt;/u&gt;" style="text;html=1;align=center;verticalAlign=middle;resizable=0;points=[];autosize=1;strokeColor=none;fillColor=none;" parent="Pb9EnYuBDf2e-PehNu_Y-20" vertex="1">
          <mxGeometry x="570" y="440" width="100" height="30" as="geometry" />
        </mxCell>
        <mxCell id="Pb9EnYuBDf2e-PehNu_Y-30" value="" style="group" parent="1" vertex="1" connectable="0">
          <mxGeometry x="1590" y="-180" width="790" height="490" as="geometry" />
        </mxCell>
        <mxCell id="Pb9EnYuBDf2e-PehNu_Y-31" value="" style="rounded=0;whiteSpace=wrap;html=1;container=0;" parent="Pb9EnYuBDf2e-PehNu_Y-30" vertex="1">
          <mxGeometry width="790" height="490" as="geometry" />
        </mxCell>
        <mxCell id="Pb9EnYuBDf2e-PehNu_Y-32" value="&lt;span style=&quot;font-size: 32px;&quot;&gt;Login Form&lt;/span&gt;" style="text;html=1;align=center;verticalAlign=middle;resizable=0;points=[];autosize=1;strokeColor=none;fillColor=none;container=0;" parent="Pb9EnYuBDf2e-PehNu_Y-30" vertex="1">
          <mxGeometry x="286.231884057971" y="40" width="190" height="50" as="geometry" />
        </mxCell>
        <mxCell id="Pb9EnYuBDf2e-PehNu_Y-33" value="&lt;span style=&quot;font-size: 32px;&quot;&gt;New Name:&amp;nbsp;&lt;/span&gt;" style="text;html=1;align=center;verticalAlign=middle;resizable=0;points=[];autosize=1;strokeColor=none;fillColor=none;container=0;" parent="Pb9EnYuBDf2e-PehNu_Y-30" vertex="1">
          <mxGeometry x="28.98927536231884" y="140" width="200" height="50" as="geometry" />
        </mxCell>
        <mxCell id="Pb9EnYuBDf2e-PehNu_Y-34" value="&lt;span style=&quot;font-size: 32px;&quot;&gt;NewPassword:&lt;/span&gt;" style="text;html=1;align=center;verticalAlign=middle;resizable=0;points=[];autosize=1;strokeColor=none;fillColor=none;container=0;" parent="Pb9EnYuBDf2e-PehNu_Y-30" vertex="1">
          <mxGeometry x="0.0014492753623187582" y="280" width="240" height="50" as="geometry" />
        </mxCell>
        <mxCell id="Pb9EnYuBDf2e-PehNu_Y-35" value="" style="rounded=1;whiteSpace=wrap;html=1;container=0;" parent="Pb9EnYuBDf2e-PehNu_Y-30" vertex="1">
          <mxGeometry x="249.9955072463768" y="135" width="446.52173913043475" height="60" as="geometry" />
        </mxCell>
        <mxCell id="Pb9EnYuBDf2e-PehNu_Y-36" value="" style="rounded=1;whiteSpace=wrap;html=1;container=0;" parent="Pb9EnYuBDf2e-PehNu_Y-30" vertex="1">
          <mxGeometry x="249.9955072463768" y="280" width="446.52173913043475" height="60" as="geometry" />
        </mxCell>
        <mxCell id="Pb9EnYuBDf2e-PehNu_Y-37" value="&lt;font style=&quot;font-size: 32px;&quot;&gt;Back&lt;/font&gt;" style="rounded=1;whiteSpace=wrap;html=1;container=0;" parent="Pb9EnYuBDf2e-PehNu_Y-30" vertex="1">
          <mxGeometry x="249.9955072463768" y="390" width="206.08695652173913" height="60" as="geometry" />
        </mxCell>
        <mxCell id="Pb9EnYuBDf2e-PehNu_Y-38" value="&lt;span style=&quot;font-size: 32px;&quot;&gt;Enter&lt;/span&gt;" style="rounded=1;whiteSpace=wrap;html=1;container=0;" parent="Pb9EnYuBDf2e-PehNu_Y-30" vertex="1">
          <mxGeometry x="490.43028985507243" y="390" width="206.08695652173913" height="60" as="geometry" />
        </mxCell>
        <mxCell id="Pb9EnYuBDf2e-PehNu_Y-47" style="edgeStyle=orthogonalEdgeStyle;rounded=0;orthogonalLoop=1;jettySize=auto;html=1;entryX=0.5;entryY=0;entryDx=0;entryDy=0;" parent="1" source="Pb9EnYuBDf2e-PehNu_Y-29" target="Pb9EnYuBDf2e-PehNu_Y-31" edge="1">
          <mxGeometry relative="1" as="geometry" />
        </mxCell>
        <mxCell id="Pb9EnYuBDf2e-PehNu_Y-59" style="edgeStyle=orthogonalEdgeStyle;rounded=0;orthogonalLoop=1;jettySize=auto;html=1;entryX=0.164;entryY=-0.001;entryDx=0;entryDy=0;entryPerimeter=0;" parent="1" source="Pb9EnYuBDf2e-PehNu_Y-6" target="Pb9EnYuBDf2e-PehNu_Y-41" edge="1">
          <mxGeometry relative="1" as="geometry" />
        </mxCell>
        <mxCell id="Pb9EnYuBDf2e-PehNu_Y-60" style="edgeStyle=orthogonalEdgeStyle;rounded=0;orthogonalLoop=1;jettySize=auto;html=1;entryX=0.709;entryY=0.001;entryDx=0;entryDy=0;entryPerimeter=0;" parent="1" source="Pb9EnYuBDf2e-PehNu_Y-21" target="Pb9EnYuBDf2e-PehNu_Y-41" edge="1">
          <mxGeometry relative="1" as="geometry">
            <mxPoint x="940" y="1450" as="targetPoint" />
          </mxGeometry>
        </mxCell>
        <mxCell id="Pb9EnYuBDf2e-PehNu_Y-104" value="" style="group" parent="1" vertex="1" connectable="0">
          <mxGeometry x="-2790" y="1460" width="4600" height="1460" as="geometry" />
        </mxCell>
        <mxCell id="Pb9EnYuBDf2e-PehNu_Y-41" value="" style="rounded=0;whiteSpace=wrap;html=1;" parent="Pb9EnYuBDf2e-PehNu_Y-104" vertex="1">
          <mxGeometry width="4600" height="1460" as="geometry" />
        </mxCell>
        <mxCell id="Pb9EnYuBDf2e-PehNu_Y-42" value="&lt;font style=&quot;font-size: 100px;&quot;&gt;Student Management System&lt;/font&gt;" style="text;html=1;align=center;verticalAlign=middle;whiteSpace=wrap;rounded=0;" parent="Pb9EnYuBDf2e-PehNu_Y-104" vertex="1">
          <mxGeometry x="1690" y="100" width="1440" height="30" as="geometry" />
        </mxCell>
        <mxCell id="Pb9EnYuBDf2e-PehNu_Y-48" value="" style="rounded=0;whiteSpace=wrap;html=1;" parent="Pb9EnYuBDf2e-PehNu_Y-104" vertex="1">
          <mxGeometry x="70" y="240" width="1350" height="1180" as="geometry" />
        </mxCell>
        <mxCell id="Pb9EnYuBDf2e-PehNu_Y-50" value="&lt;span style=&quot;font-size: 32px;&quot;&gt;Student ID:&lt;/span&gt;" style="text;html=1;align=center;verticalAlign=middle;whiteSpace=wrap;rounded=0;" parent="Pb9EnYuBDf2e-PehNu_Y-104" vertex="1">
          <mxGeometry x="140" y="280" width="220" height="30" as="geometry" />
        </mxCell>
        <mxCell id="Pb9EnYuBDf2e-PehNu_Y-51" value="" style="rounded=1;whiteSpace=wrap;html=1;" parent="Pb9EnYuBDf2e-PehNu_Y-104" vertex="1">
          <mxGeometry x="450" y="265" width="920" height="60" as="geometry" />
        </mxCell>
        <mxCell id="Pb9EnYuBDf2e-PehNu_Y-52" value="&lt;span style=&quot;font-size: 32px;&quot;&gt;Student Name:&lt;/span&gt;" style="text;html=1;align=center;verticalAlign=middle;whiteSpace=wrap;rounded=0;" parent="Pb9EnYuBDf2e-PehNu_Y-104" vertex="1">
          <mxGeometry x="150" y="400" width="220" height="30" as="geometry" />
        </mxCell>
        <mxCell id="Pb9EnYuBDf2e-PehNu_Y-53" value="" style="rounded=1;whiteSpace=wrap;html=1;" parent="Pb9EnYuBDf2e-PehNu_Y-104" vertex="1">
          <mxGeometry x="450" y="385" width="920" height="60" as="geometry" />
        </mxCell>
        <mxCell id="Pb9EnYuBDf2e-PehNu_Y-54" value="&lt;span style=&quot;font-size: 32px;&quot;&gt;Student Age:&lt;/span&gt;" style="text;html=1;align=center;verticalAlign=middle;whiteSpace=wrap;rounded=0;" parent="Pb9EnYuBDf2e-PehNu_Y-104" vertex="1">
          <mxGeometry x="150" y="525" width="220" height="30" as="geometry" />
        </mxCell>
        <mxCell id="Pb9EnYuBDf2e-PehNu_Y-55" value="" style="rounded=1;whiteSpace=wrap;html=1;" parent="Pb9EnYuBDf2e-PehNu_Y-104" vertex="1">
          <mxGeometry x="450" y="640" width="920" height="60" as="geometry" />
        </mxCell>
        <mxCell id="Pb9EnYuBDf2e-PehNu_Y-56" value="&lt;span style=&quot;font-size: 32px;&quot;&gt;Student DOB&lt;/span&gt;" style="text;html=1;align=center;verticalAlign=middle;whiteSpace=wrap;rounded=0;" parent="Pb9EnYuBDf2e-PehNu_Y-104" vertex="1">
          <mxGeometry x="150" y="655" width="220" height="30" as="geometry" />
        </mxCell>
        <mxCell id="Pb9EnYuBDf2e-PehNu_Y-57" value="" style="rounded=1;whiteSpace=wrap;html=1;" parent="Pb9EnYuBDf2e-PehNu_Y-104" vertex="1">
          <mxGeometry x="450" y="510" width="920" height="60" as="geometry" />
        </mxCell>
        <mxCell id="Pb9EnYuBDf2e-PehNu_Y-61" value="&lt;span style=&quot;font-size: 32px;&quot;&gt;Student Major:&lt;/span&gt;" style="text;html=1;align=center;verticalAlign=middle;whiteSpace=wrap;rounded=0;" parent="Pb9EnYuBDf2e-PehNu_Y-104" vertex="1">
          <mxGeometry x="160" y="785" width="220" height="30" as="geometry" />
        </mxCell>
        <mxCell id="Pb9EnYuBDf2e-PehNu_Y-62" value="" style="rounded=1;whiteSpace=wrap;html=1;" parent="Pb9EnYuBDf2e-PehNu_Y-104" vertex="1">
          <mxGeometry x="450" y="770" width="920" height="60" as="geometry" />
        </mxCell>
        <mxCell id="Pb9EnYuBDf2e-PehNu_Y-63" value="&lt;span style=&quot;font-size: 32px;&quot;&gt;Student Academic:&lt;/span&gt;" style="text;html=1;align=center;verticalAlign=middle;whiteSpace=wrap;rounded=0;" parent="Pb9EnYuBDf2e-PehNu_Y-104" vertex="1">
          <mxGeometry x="130" y="940" width="301" height="30" as="geometry" />
        </mxCell>
        <mxCell id="Pb9EnYuBDf2e-PehNu_Y-64" value="" style="rounded=1;whiteSpace=wrap;html=1;" parent="Pb9EnYuBDf2e-PehNu_Y-104" vertex="1">
          <mxGeometry x="450" y="925" width="920" height="60" as="geometry" />
        </mxCell>
        <mxCell id="Pb9EnYuBDf2e-PehNu_Y-65" value="" style="rounded=1;whiteSpace=wrap;html=1;" parent="Pb9EnYuBDf2e-PehNu_Y-104" vertex="1">
          <mxGeometry x="450" y="1060" width="920" height="60" as="geometry" />
        </mxCell>
        <mxCell id="Pb9EnYuBDf2e-PehNu_Y-66" value="" style="rounded=1;whiteSpace=wrap;html=1;" parent="Pb9EnYuBDf2e-PehNu_Y-104" vertex="1">
          <mxGeometry x="450" y="1190" width="920" height="60" as="geometry" />
        </mxCell>
        <mxCell id="Pb9EnYuBDf2e-PehNu_Y-67" value="" style="rounded=1;whiteSpace=wrap;html=1;" parent="Pb9EnYuBDf2e-PehNu_Y-104" vertex="1">
          <mxGeometry x="460" y="1320" width="920" height="60" as="geometry" />
        </mxCell>
        <mxCell id="Pb9EnYuBDf2e-PehNu_Y-68" value="&lt;span style=&quot;font-size: 32px;&quot;&gt;Student Email&lt;/span&gt;" style="text;html=1;align=center;verticalAlign=middle;whiteSpace=wrap;rounded=0;" parent="Pb9EnYuBDf2e-PehNu_Y-104" vertex="1">
          <mxGeometry x="119.5" y="1075" width="301" height="30" as="geometry" />
        </mxCell>
        <mxCell id="Pb9EnYuBDf2e-PehNu_Y-69" value="&lt;span style=&quot;font-size: 32px;&quot;&gt;Student Accademic:&lt;/span&gt;" style="text;html=1;align=center;verticalAlign=middle;whiteSpace=wrap;rounded=0;" parent="Pb9EnYuBDf2e-PehNu_Y-104" vertex="1">
          <mxGeometry x="130" y="1205" width="301" height="30" as="geometry" />
        </mxCell>
        <mxCell id="Pb9EnYuBDf2e-PehNu_Y-70" value="&lt;span style=&quot;font-size: 32px;&quot;&gt;Student Accademic:&lt;/span&gt;" style="text;html=1;align=center;verticalAlign=middle;whiteSpace=wrap;rounded=0;" parent="Pb9EnYuBDf2e-PehNu_Y-104" vertex="1">
          <mxGeometry x="130" y="1335" width="301" height="30" as="geometry" />
        </mxCell>
        <mxCell id="Pb9EnYuBDf2e-PehNu_Y-72" value="" style="rounded=0;whiteSpace=wrap;html=1;" parent="Pb9EnYuBDf2e-PehNu_Y-104" vertex="1">
          <mxGeometry x="1450" y="240" width="3040" height="1070" as="geometry" />
        </mxCell>
        <mxCell id="Pb9EnYuBDf2e-PehNu_Y-73" value="&lt;font style=&quot;font-size: 50px;&quot;&gt;&lt;b style=&quot;&quot;&gt;Add&lt;/b&gt;&lt;/font&gt;" style="rounded=1;whiteSpace=wrap;html=1;" parent="Pb9EnYuBDf2e-PehNu_Y-104" vertex="1">
          <mxGeometry x="1450" y="1340" width="370" height="90" as="geometry" />
        </mxCell>
        <mxCell id="Pb9EnYuBDf2e-PehNu_Y-75" value="&lt;font style=&quot;font-size: 50px;&quot;&gt;&lt;b style=&quot;&quot;&gt;Update&lt;/b&gt;&lt;/font&gt;" style="rounded=1;whiteSpace=wrap;html=1;" parent="Pb9EnYuBDf2e-PehNu_Y-104" vertex="1">
          <mxGeometry x="1930" y="1335" width="390" height="95" as="geometry" />
        </mxCell>
        <mxCell id="Pb9EnYuBDf2e-PehNu_Y-76" value="&lt;b style=&quot;&quot;&gt;&lt;font style=&quot;font-size: 50px;&quot;&gt;Clear Layout&lt;/font&gt;&lt;/b&gt;" style="rounded=1;whiteSpace=wrap;html=1;" parent="Pb9EnYuBDf2e-PehNu_Y-104" vertex="1">
          <mxGeometry x="3520" y="1330" width="420" height="110" as="geometry" />
        </mxCell>
        <mxCell id="Pb9EnYuBDf2e-PehNu_Y-77" value="&lt;b style=&quot;&quot;&gt;&lt;font style=&quot;font-size: 50px;&quot;&gt;Search&lt;/font&gt;&lt;/b&gt;" style="rounded=1;whiteSpace=wrap;html=1;" parent="Pb9EnYuBDf2e-PehNu_Y-104" vertex="1">
          <mxGeometry x="2960" y="1335" width="420" height="100" as="geometry" />
        </mxCell>
        <mxCell id="Pb9EnYuBDf2e-PehNu_Y-78" value="&lt;b style=&quot;&quot;&gt;&lt;font style=&quot;font-size: 50px;&quot;&gt;Delete&lt;/font&gt;&lt;/b&gt;" style="rounded=1;whiteSpace=wrap;html=1;" parent="Pb9EnYuBDf2e-PehNu_Y-104" vertex="1">
          <mxGeometry x="2420" y="1335" width="400" height="95" as="geometry" />
        </mxCell>
        <mxCell id="Pb9EnYuBDf2e-PehNu_Y-79" value="&lt;b style=&quot;&quot;&gt;&lt;font style=&quot;font-size: 50px;&quot;&gt;Logout&lt;/font&gt;&lt;/b&gt;" style="rounded=1;whiteSpace=wrap;html=1;" parent="Pb9EnYuBDf2e-PehNu_Y-104" vertex="1">
          <mxGeometry x="4090" y="1330" width="400" height="110" as="geometry" />
        </mxCell>
        <mxCell id="Pb9EnYuBDf2e-PehNu_Y-82" value="&lt;font style=&quot;font-size: 64px;&quot;&gt;ID&lt;/font&gt;" style="text;html=1;align=center;verticalAlign=middle;whiteSpace=wrap;rounded=0;" parent="Pb9EnYuBDf2e-PehNu_Y-104" vertex="1">
          <mxGeometry x="1470" y="280" width="220" height="30" as="geometry" />
        </mxCell>
        <mxCell id="Pb9EnYuBDf2e-PehNu_Y-84" value="&lt;span style=&quot;font-size: 64px;&quot;&gt;Name&lt;/span&gt;" style="text;html=1;align=center;verticalAlign=middle;whiteSpace=wrap;rounded=0;" parent="Pb9EnYuBDf2e-PehNu_Y-104" vertex="1">
          <mxGeometry x="1790" y="280" width="220" height="30" as="geometry" />
        </mxCell>
        <mxCell id="Pb9EnYuBDf2e-PehNu_Y-85" value="&lt;span style=&quot;font-size: 64px;&quot;&gt;Age&lt;/span&gt;" style="text;html=1;align=center;verticalAlign=middle;whiteSpace=wrap;rounded=0;" parent="Pb9EnYuBDf2e-PehNu_Y-104" vertex="1">
          <mxGeometry x="2100" y="280" width="220" height="30" as="geometry" />
        </mxCell>
        <mxCell id="Pb9EnYuBDf2e-PehNu_Y-86" value="&lt;span style=&quot;font-size: 64px;&quot;&gt;DOB&lt;/span&gt;" style="text;html=1;align=center;verticalAlign=middle;whiteSpace=wrap;rounded=0;" parent="Pb9EnYuBDf2e-PehNu_Y-104" vertex="1">
          <mxGeometry x="2400" y="290" width="220" height="30" as="geometry" />
        </mxCell>
        <mxCell id="Pb9EnYuBDf2e-PehNu_Y-92" value="&lt;span style=&quot;font-size: 64px;&quot;&gt;Major&lt;/span&gt;" style="text;html=1;align=center;verticalAlign=middle;whiteSpace=wrap;rounded=0;" parent="Pb9EnYuBDf2e-PehNu_Y-104" vertex="1">
          <mxGeometry x="2760" y="280" width="220" height="30" as="geometry" />
        </mxCell>
        <mxCell id="Pb9EnYuBDf2e-PehNu_Y-93" value="&lt;span style=&quot;font-size: 64px;&quot;&gt;Accademic&lt;/span&gt;" style="text;html=1;align=center;verticalAlign=middle;whiteSpace=wrap;rounded=0;" parent="Pb9EnYuBDf2e-PehNu_Y-104" vertex="1">
          <mxGeometry x="3160" y="280" width="220" height="30" as="geometry" />
        </mxCell>
        <mxCell id="Pb9EnYuBDf2e-PehNu_Y-95" value="&lt;span style=&quot;font-size: 64px;&quot;&gt;Email&lt;/span&gt;" style="text;html=1;align=center;verticalAlign=middle;whiteSpace=wrap;rounded=0;" parent="Pb9EnYuBDf2e-PehNu_Y-104" vertex="1">
          <mxGeometry x="3560" y="280" width="220" height="30" as="geometry" />
        </mxCell>
        <mxCell id="Pb9EnYuBDf2e-PehNu_Y-96" value="&lt;span style=&quot;font-size: 64px;&quot;&gt;Address&lt;/span&gt;" style="text;html=1;align=center;verticalAlign=middle;whiteSpace=wrap;rounded=0;" parent="Pb9EnYuBDf2e-PehNu_Y-104" vertex="1">
          <mxGeometry x="3910" y="280" width="220" height="30" as="geometry" />
        </mxCell>
        <mxCell id="Pb9EnYuBDf2e-PehNu_Y-97" value="&lt;span style=&quot;font-size: 64px;&quot;&gt;Phone&lt;/span&gt;" style="text;html=1;align=center;verticalAlign=middle;whiteSpace=wrap;rounded=0;" parent="Pb9EnYuBDf2e-PehNu_Y-104" vertex="1">
          <mxGeometry x="4240" y="290" width="220" height="30" as="geometry" />
        </mxCell>
        <mxCell id="Pb9EnYuBDf2e-PehNu_Y-98" value="&lt;font style=&quot;font-size: 32px;&quot;&gt;&lt;b&gt;Student Information&lt;/b&gt;&lt;/font&gt;" style="rounded=1;whiteSpace=wrap;html=1;" parent="Pb9EnYuBDf2e-PehNu_Y-104" vertex="1">
          <mxGeometry x="70" y="180" width="360" height="60" as="geometry" />
        </mxCell>
        <mxCell id="Pb9EnYuBDf2e-PehNu_Y-99" value="&lt;span style=&quot;font-size: 32px;&quot;&gt;&lt;b&gt;StudentCourse&lt;/b&gt;&lt;/span&gt;" style="rounded=1;whiteSpace=wrap;html=1;" parent="Pb9EnYuBDf2e-PehNu_Y-104" vertex="1">
          <mxGeometry x="431" y="180" width="360" height="60" as="geometry" />
        </mxCell>
        <mxCell id="Pb9EnYuBDf2e-PehNu_Y-103" value="" style="rounded=0;whiteSpace=wrap;html=1;" parent="Pb9EnYuBDf2e-PehNu_Y-104" vertex="1">
          <mxGeometry x="1450" y="375" width="3040" height="5" as="geometry" />
        </mxCell>
        <mxCell id="Pb9EnYuBDf2e-PehNu_Y-108" value="" style="group" parent="1" vertex="1" connectable="0">
          <mxGeometry x="-770" y="-750" width="1350" height="880" as="geometry" />
        </mxCell>
        <mxCell id="Pb9EnYuBDf2e-PehNu_Y-1" value="" style="rounded=0;whiteSpace=wrap;html=1;container=0;" parent="Pb9EnYuBDf2e-PehNu_Y-108" vertex="1">
          <mxGeometry width="1350.0000000000002" height="880" as="geometry" />
        </mxCell>
        <mxCell id="Pb9EnYuBDf2e-PehNu_Y-3" value="&lt;b&gt;&lt;font style=&quot;font-size: 32px;&quot;&gt;Register&lt;/font&gt;&lt;/b&gt;" style="rounded=1;whiteSpace=wrap;html=1;container=0;" parent="Pb9EnYuBDf2e-PehNu_Y-108" vertex="1">
          <mxGeometry x="289.28714285714295" y="249.99809523809523" width="771.4285714285714" height="193.33333333333334" as="geometry" />
        </mxCell>
        <mxCell id="Pb9EnYuBDf2e-PehNu_Y-4" value="&lt;span style=&quot;font-size: 32px;&quot;&gt;&lt;b&gt;Login&lt;/b&gt;&lt;/span&gt;" style="rounded=1;whiteSpace=wrap;html=1;container=0;" parent="Pb9EnYuBDf2e-PehNu_Y-108" vertex="1">
          <mxGeometry x="286.3771428571429" y="529.9983473389357" width="771.4285714285714" height="193.33333333333334" as="geometry" />
        </mxCell>
        <mxCell id="Pb9EnYuBDf2e-PehNu_Y-105" value="&lt;font style=&quot;font-size: 60px;&quot;&gt;Admin&lt;/font&gt;" style="text;html=1;align=center;verticalAlign=middle;whiteSpace=wrap;rounded=0;" parent="Pb9EnYuBDf2e-PehNu_Y-108" vertex="1">
          <mxGeometry x="324.340157480315" y="65" width="733.464566929134" height="135.24" as="geometry" />
        </mxCell>
        <mxCell id="Pb9EnYuBDf2e-PehNu_Y-109" style="edgeStyle=orthogonalEdgeStyle;rounded=0;orthogonalLoop=1;jettySize=auto;html=1;entryX=0;entryY=0.5;entryDx=0;entryDy=0;" parent="1" source="Pb9EnYuBDf2e-PehNu_Y-6" target="Pb9EnYuBDf2e-PehNu_Y-3" edge="1">
          <mxGeometry relative="1" as="geometry" />
        </mxCell>
        <mxCell id="Pb9EnYuBDf2e-PehNu_Y-110" style="edgeStyle=orthogonalEdgeStyle;rounded=0;orthogonalLoop=1;jettySize=auto;html=1;entryX=1;entryY=0.5;entryDx=0;entryDy=0;" parent="1" source="Pb9EnYuBDf2e-PehNu_Y-21" target="Pb9EnYuBDf2e-PehNu_Y-4" edge="1">
          <mxGeometry relative="1" as="geometry" />
        </mxCell>
        <mxCell id="Pb9EnYuBDf2e-PehNu_Y-111" value="" style="group" parent="1" vertex="1" connectable="0">
          <mxGeometry x="2190" y="680" width="4600" height="1460" as="geometry" />
        </mxCell>
        <mxCell id="Pb9EnYuBDf2e-PehNu_Y-112" value="" style="rounded=0;whiteSpace=wrap;html=1;" parent="Pb9EnYuBDf2e-PehNu_Y-111" vertex="1">
          <mxGeometry width="4600" height="1460" as="geometry" />
        </mxCell>
        <mxCell id="Pb9EnYuBDf2e-PehNu_Y-113" value="&lt;font style=&quot;font-size: 100px;&quot;&gt;Student Management System&lt;/font&gt;" style="text;html=1;align=center;verticalAlign=middle;whiteSpace=wrap;rounded=0;" parent="Pb9EnYuBDf2e-PehNu_Y-111" vertex="1">
          <mxGeometry x="1690" y="100" width="1440" height="30" as="geometry" />
        </mxCell>
        <mxCell id="Pb9EnYuBDf2e-PehNu_Y-114" value="" style="rounded=0;whiteSpace=wrap;html=1;" parent="Pb9EnYuBDf2e-PehNu_Y-111" vertex="1">
          <mxGeometry x="70" y="240" width="1350" height="1180" as="geometry" />
        </mxCell>
        <mxCell id="Pb9EnYuBDf2e-PehNu_Y-115" value="&lt;span style=&quot;font-size: 32px;&quot;&gt;Student ID:&lt;/span&gt;" style="text;html=1;align=center;verticalAlign=middle;whiteSpace=wrap;rounded=0;" parent="Pb9EnYuBDf2e-PehNu_Y-111" vertex="1">
          <mxGeometry x="140" y="280" width="220" height="30" as="geometry" />
        </mxCell>
        <mxCell id="Pb9EnYuBDf2e-PehNu_Y-116" value="" style="rounded=1;whiteSpace=wrap;html=1;" parent="Pb9EnYuBDf2e-PehNu_Y-111" vertex="1">
          <mxGeometry x="450" y="265" width="920" height="60" as="geometry" />
        </mxCell>
        <mxCell id="Pb9EnYuBDf2e-PehNu_Y-117" value="&lt;span style=&quot;font-size: 32px;&quot;&gt;Student Name:&lt;/span&gt;" style="text;html=1;align=center;verticalAlign=middle;whiteSpace=wrap;rounded=0;" parent="Pb9EnYuBDf2e-PehNu_Y-111" vertex="1">
          <mxGeometry x="150" y="400" width="220" height="30" as="geometry" />
        </mxCell>
        <mxCell id="Pb9EnYuBDf2e-PehNu_Y-118" value="" style="rounded=1;whiteSpace=wrap;html=1;" parent="Pb9EnYuBDf2e-PehNu_Y-111" vertex="1">
          <mxGeometry x="450" y="385" width="920" height="60" as="geometry" />
        </mxCell>
        <mxCell id="Pb9EnYuBDf2e-PehNu_Y-119" value="&lt;span style=&quot;font-size: 32px;&quot;&gt;Semester:&lt;/span&gt;" style="text;html=1;align=center;verticalAlign=middle;whiteSpace=wrap;rounded=0;" parent="Pb9EnYuBDf2e-PehNu_Y-111" vertex="1">
          <mxGeometry x="150" y="525" width="220" height="30" as="geometry" />
        </mxCell>
        <mxCell id="Pb9EnYuBDf2e-PehNu_Y-120" value="" style="rounded=1;whiteSpace=wrap;html=1;" parent="Pb9EnYuBDf2e-PehNu_Y-111" vertex="1">
          <mxGeometry x="450" y="640" width="920" height="60" as="geometry" />
        </mxCell>
        <mxCell id="Pb9EnYuBDf2e-PehNu_Y-121" value="&lt;span style=&quot;font-size: 32px;&quot;&gt;Course1:&lt;/span&gt;" style="text;html=1;align=center;verticalAlign=middle;whiteSpace=wrap;rounded=0;" parent="Pb9EnYuBDf2e-PehNu_Y-111" vertex="1">
          <mxGeometry x="150" y="655" width="220" height="30" as="geometry" />
        </mxCell>
        <mxCell id="Pb9EnYuBDf2e-PehNu_Y-122" value="" style="rounded=1;whiteSpace=wrap;html=1;" parent="Pb9EnYuBDf2e-PehNu_Y-111" vertex="1">
          <mxGeometry x="450" y="510" width="920" height="60" as="geometry" />
        </mxCell>
        <mxCell id="Pb9EnYuBDf2e-PehNu_Y-123" value="&lt;span style=&quot;font-size: 32px;&quot;&gt;Course2:&lt;/span&gt;" style="text;html=1;align=center;verticalAlign=middle;whiteSpace=wrap;rounded=0;" parent="Pb9EnYuBDf2e-PehNu_Y-111" vertex="1">
          <mxGeometry x="160" y="785" width="220" height="30" as="geometry" />
        </mxCell>
        <mxCell id="Pb9EnYuBDf2e-PehNu_Y-124" value="" style="rounded=1;whiteSpace=wrap;html=1;" parent="Pb9EnYuBDf2e-PehNu_Y-111" vertex="1">
          <mxGeometry x="450" y="770" width="920" height="60" as="geometry" />
        </mxCell>
        <mxCell id="Pb9EnYuBDf2e-PehNu_Y-125" value="&lt;span style=&quot;font-size: 32px;&quot;&gt;Course3:&lt;/span&gt;" style="text;html=1;align=center;verticalAlign=middle;whiteSpace=wrap;rounded=0;" parent="Pb9EnYuBDf2e-PehNu_Y-111" vertex="1">
          <mxGeometry x="130" y="940" width="301" height="30" as="geometry" />
        </mxCell>
        <mxCell id="Pb9EnYuBDf2e-PehNu_Y-126" value="" style="rounded=1;whiteSpace=wrap;html=1;" parent="Pb9EnYuBDf2e-PehNu_Y-111" vertex="1">
          <mxGeometry x="450" y="925" width="920" height="60" as="geometry" />
        </mxCell>
        <mxCell id="Pb9EnYuBDf2e-PehNu_Y-127" value="" style="rounded=1;whiteSpace=wrap;html=1;" parent="Pb9EnYuBDf2e-PehNu_Y-111" vertex="1">
          <mxGeometry x="450" y="1060" width="920" height="60" as="geometry" />
        </mxCell>
        <mxCell id="Pb9EnYuBDf2e-PehNu_Y-128" value="" style="rounded=1;whiteSpace=wrap;html=1;" parent="Pb9EnYuBDf2e-PehNu_Y-111" vertex="1">
          <mxGeometry x="450" y="1190" width="920" height="60" as="geometry" />
        </mxCell>
        <mxCell id="Pb9EnYuBDf2e-PehNu_Y-129" value="" style="rounded=1;whiteSpace=wrap;html=1;" parent="Pb9EnYuBDf2e-PehNu_Y-111" vertex="1">
          <mxGeometry x="460" y="1320" width="920" height="60" as="geometry" />
        </mxCell>
        <mxCell id="Pb9EnYuBDf2e-PehNu_Y-130" value="&lt;span style=&quot;font-size: 32px;&quot;&gt;Course4:&lt;/span&gt;" style="text;html=1;align=center;verticalAlign=middle;whiteSpace=wrap;rounded=0;" parent="Pb9EnYuBDf2e-PehNu_Y-111" vertex="1">
          <mxGeometry x="119.5" y="1075" width="301" height="30" as="geometry" />
        </mxCell>
        <mxCell id="Pb9EnYuBDf2e-PehNu_Y-131" value="&lt;span style=&quot;font-size: 32px;&quot;&gt;Course5:&lt;/span&gt;" style="text;html=1;align=center;verticalAlign=middle;whiteSpace=wrap;rounded=0;" parent="Pb9EnYuBDf2e-PehNu_Y-111" vertex="1">
          <mxGeometry x="130" y="1205" width="301" height="30" as="geometry" />
        </mxCell>
        <mxCell id="Pb9EnYuBDf2e-PehNu_Y-132" value="&lt;span style=&quot;font-size: 32px;&quot;&gt;Course6:&lt;/span&gt;" style="text;html=1;align=center;verticalAlign=middle;whiteSpace=wrap;rounded=0;" parent="Pb9EnYuBDf2e-PehNu_Y-111" vertex="1">
          <mxGeometry x="130" y="1335" width="301" height="30" as="geometry" />
        </mxCell>
        <mxCell id="Pb9EnYuBDf2e-PehNu_Y-133" value="" style="rounded=0;whiteSpace=wrap;html=1;" parent="Pb9EnYuBDf2e-PehNu_Y-111" vertex="1">
          <mxGeometry x="1450" y="240" width="3040" height="1070" as="geometry" />
        </mxCell>
        <mxCell id="Pb9EnYuBDf2e-PehNu_Y-134" value="&lt;font style=&quot;font-size: 50px;&quot;&gt;&lt;b style=&quot;&quot;&gt;Add&lt;/b&gt;&lt;/font&gt;" style="rounded=1;whiteSpace=wrap;html=1;" parent="Pb9EnYuBDf2e-PehNu_Y-111" vertex="1">
          <mxGeometry x="1450" y="1340" width="370" height="90" as="geometry" />
        </mxCell>
        <mxCell id="Pb9EnYuBDf2e-PehNu_Y-135" value="&lt;font style=&quot;font-size: 50px;&quot;&gt;&lt;b style=&quot;&quot;&gt;Update&lt;/b&gt;&lt;/font&gt;" style="rounded=1;whiteSpace=wrap;html=1;" parent="Pb9EnYuBDf2e-PehNu_Y-111" vertex="1">
          <mxGeometry x="1930" y="1335" width="390" height="95" as="geometry" />
        </mxCell>
        <mxCell id="Pb9EnYuBDf2e-PehNu_Y-136" value="&lt;b style=&quot;&quot;&gt;&lt;font style=&quot;font-size: 50px;&quot;&gt;Clear Layout&lt;/font&gt;&lt;/b&gt;" style="rounded=1;whiteSpace=wrap;html=1;" parent="Pb9EnYuBDf2e-PehNu_Y-111" vertex="1">
          <mxGeometry x="3520" y="1330" width="420" height="110" as="geometry" />
        </mxCell>
        <mxCell id="Pb9EnYuBDf2e-PehNu_Y-137" value="&lt;b style=&quot;&quot;&gt;&lt;font style=&quot;font-size: 50px;&quot;&gt;Search&lt;/font&gt;&lt;/b&gt;" style="rounded=1;whiteSpace=wrap;html=1;" parent="Pb9EnYuBDf2e-PehNu_Y-111" vertex="1">
          <mxGeometry x="2960" y="1335" width="420" height="100" as="geometry" />
        </mxCell>
        <mxCell id="Pb9EnYuBDf2e-PehNu_Y-138" value="&lt;b style=&quot;&quot;&gt;&lt;font style=&quot;font-size: 50px;&quot;&gt;Delete&lt;/font&gt;&lt;/b&gt;" style="rounded=1;whiteSpace=wrap;html=1;" parent="Pb9EnYuBDf2e-PehNu_Y-111" vertex="1">
          <mxGeometry x="2420" y="1335" width="400" height="95" as="geometry" />
        </mxCell>
        <mxCell id="Pb9EnYuBDf2e-PehNu_Y-139" value="&lt;b style=&quot;&quot;&gt;&lt;font style=&quot;font-size: 50px;&quot;&gt;Logout&lt;/font&gt;&lt;/b&gt;" style="rounded=1;whiteSpace=wrap;html=1;" parent="Pb9EnYuBDf2e-PehNu_Y-111" vertex="1">
          <mxGeometry x="4090" y="1330" width="400" height="110" as="geometry" />
        </mxCell>
        <mxCell id="Pb9EnYuBDf2e-PehNu_Y-140" value="&lt;font style=&quot;font-size: 64px;&quot;&gt;ID&lt;/font&gt;" style="text;html=1;align=center;verticalAlign=middle;whiteSpace=wrap;rounded=0;" parent="Pb9EnYuBDf2e-PehNu_Y-111" vertex="1">
          <mxGeometry x="1470" y="280" width="220" height="30" as="geometry" />
        </mxCell>
        <mxCell id="Pb9EnYuBDf2e-PehNu_Y-141" value="&lt;span style=&quot;font-size: 64px;&quot;&gt;Name&lt;/span&gt;" style="text;html=1;align=center;verticalAlign=middle;whiteSpace=wrap;rounded=0;" parent="Pb9EnYuBDf2e-PehNu_Y-111" vertex="1">
          <mxGeometry x="1790" y="280" width="220" height="30" as="geometry" />
        </mxCell>
        <mxCell id="Pb9EnYuBDf2e-PehNu_Y-142" value="&lt;div&gt;&lt;br&gt;&lt;/div&gt;&lt;div&gt;&lt;span style=&quot;font-size: 64px;&quot;&gt;Semester&lt;/span&gt;&lt;/div&gt;" style="text;html=1;align=center;verticalAlign=middle;whiteSpace=wrap;rounded=0;" parent="Pb9EnYuBDf2e-PehNu_Y-111" vertex="1">
          <mxGeometry x="2100" y="280" width="220" height="30" as="geometry" />
        </mxCell>
        <mxCell id="Pb9EnYuBDf2e-PehNu_Y-143" value="&lt;span style=&quot;font-size: 64px;&quot;&gt;Course1&lt;/span&gt;" style="text;html=1;align=center;verticalAlign=middle;whiteSpace=wrap;rounded=0;" parent="Pb9EnYuBDf2e-PehNu_Y-111" vertex="1">
          <mxGeometry x="2450" y="290" width="220" height="30" as="geometry" />
        </mxCell>
        <mxCell id="Pb9EnYuBDf2e-PehNu_Y-144" value="&lt;span style=&quot;font-size: 64px;&quot;&gt;Course2&lt;/span&gt;" style="text;html=1;align=center;verticalAlign=middle;whiteSpace=wrap;rounded=0;" parent="Pb9EnYuBDf2e-PehNu_Y-111" vertex="1">
          <mxGeometry x="2760" y="280" width="220" height="30" as="geometry" />
        </mxCell>
        <mxCell id="Pb9EnYuBDf2e-PehNu_Y-145" value="&lt;span style=&quot;font-size: 64px;&quot;&gt;Course3&lt;/span&gt;" style="text;html=1;align=center;verticalAlign=middle;whiteSpace=wrap;rounded=0;" parent="Pb9EnYuBDf2e-PehNu_Y-111" vertex="1">
          <mxGeometry x="3160" y="280" width="220" height="30" as="geometry" />
        </mxCell>
        <mxCell id="Pb9EnYuBDf2e-PehNu_Y-146" value="&lt;span style=&quot;font-size: 64px;&quot;&gt;Course4&lt;/span&gt;" style="text;html=1;align=center;verticalAlign=middle;whiteSpace=wrap;rounded=0;" parent="Pb9EnYuBDf2e-PehNu_Y-111" vertex="1">
          <mxGeometry x="3560" y="280" width="220" height="30" as="geometry" />
        </mxCell>
        <mxCell id="Pb9EnYuBDf2e-PehNu_Y-147" value="&lt;span style=&quot;font-size: 64px;&quot;&gt;Course5&lt;/span&gt;" style="text;html=1;align=center;verticalAlign=middle;whiteSpace=wrap;rounded=0;" parent="Pb9EnYuBDf2e-PehNu_Y-111" vertex="1">
          <mxGeometry x="3910" y="280" width="220" height="30" as="geometry" />
        </mxCell>
        <mxCell id="Pb9EnYuBDf2e-PehNu_Y-148" value="&lt;span style=&quot;font-size: 64px;&quot;&gt;Course6&lt;/span&gt;" style="text;html=1;align=center;verticalAlign=middle;whiteSpace=wrap;rounded=0;" parent="Pb9EnYuBDf2e-PehNu_Y-111" vertex="1">
          <mxGeometry x="4240" y="290" width="220" height="30" as="geometry" />
        </mxCell>
        <mxCell id="Pb9EnYuBDf2e-PehNu_Y-149" value="&lt;font style=&quot;font-size: 32px;&quot;&gt;&lt;b&gt;Student Information&lt;/b&gt;&lt;/font&gt;" style="rounded=1;whiteSpace=wrap;html=1;" parent="Pb9EnYuBDf2e-PehNu_Y-111" vertex="1">
          <mxGeometry x="70" y="180" width="360" height="60" as="geometry" />
        </mxCell>
        <mxCell id="Pb9EnYuBDf2e-PehNu_Y-150" value="&lt;span style=&quot;font-size: 32px;&quot;&gt;&lt;b&gt;StudentCourse&lt;/b&gt;&lt;/span&gt;" style="rounded=1;whiteSpace=wrap;html=1;" parent="Pb9EnYuBDf2e-PehNu_Y-111" vertex="1">
          <mxGeometry x="431" y="180" width="360" height="60" as="geometry" />
        </mxCell>
        <mxCell id="Pb9EnYuBDf2e-PehNu_Y-151" value="" style="rounded=0;whiteSpace=wrap;html=1;" parent="Pb9EnYuBDf2e-PehNu_Y-111" vertex="1">
          <mxGeometry x="1450" y="375" width="3040" height="5" as="geometry" />
        </mxCell>
        <mxCell id="hpcS94n02SvtDcmJyeEZ-4" style="edgeStyle=orthogonalEdgeStyle;rounded=0;orthogonalLoop=1;jettySize=auto;html=1;exitX=0.5;exitY=1;exitDx=0;exitDy=0;" parent="Pb9EnYuBDf2e-PehNu_Y-111" source="Pb9EnYuBDf2e-PehNu_Y-148" target="Pb9EnYuBDf2e-PehNu_Y-148" edge="1">
          <mxGeometry relative="1" as="geometry" />
        </mxCell>
        <mxCell id="hpcS94n02SvtDcmJyeEZ-6" style="edgeStyle=orthogonalEdgeStyle;rounded=0;orthogonalLoop=1;jettySize=auto;html=1;exitX=0.5;exitY=1;exitDx=0;exitDy=0;" parent="Pb9EnYuBDf2e-PehNu_Y-111" source="Pb9EnYuBDf2e-PehNu_Y-147" target="Pb9EnYuBDf2e-PehNu_Y-147" edge="1">
          <mxGeometry relative="1" as="geometry" />
        </mxCell>
        <mxCell id="Pb9EnYuBDf2e-PehNu_Y-152" style="edgeStyle=orthogonalEdgeStyle;rounded=0;orthogonalLoop=1;jettySize=auto;html=1;exitX=1;exitY=0.5;exitDx=0;exitDy=0;entryX=0;entryY=0.5;entryDx=0;entryDy=0;" parent="1" source="Pb9EnYuBDf2e-PehNu_Y-99" target="Pb9EnYuBDf2e-PehNu_Y-112" edge="1">
          <mxGeometry relative="1" as="geometry">
            <mxPoint x="-640" y="1230" as="sourcePoint" />
            <mxPoint x="2240" y="1010" as="targetPoint" />
          </mxGeometry>
        </mxCell>
        <mxCell id="Pb9EnYuBDf2e-PehNu_Y-154" style="edgeStyle=orthogonalEdgeStyle;rounded=0;orthogonalLoop=1;jettySize=auto;html=1;entryX=0.5;entryY=1;entryDx=0;entryDy=0;" parent="1" source="Pb9EnYuBDf2e-PehNu_Y-153" target="Pb9EnYuBDf2e-PehNu_Y-17" edge="1">
          <mxGeometry relative="1" as="geometry" />
        </mxCell>
        <mxCell id="Pb9EnYuBDf2e-PehNu_Y-153" value="&lt;font style=&quot;font-size: 64px;&quot;&gt;SuccessFull !&lt;/font&gt;" style="rounded=0;whiteSpace=wrap;html=1;" parent="1" vertex="1">
          <mxGeometry x="-2730" y="-340" width="480" height="150" as="geometry" />
        </mxCell>
        <mxCell id="hpcS94n02SvtDcmJyeEZ-1" value="&lt;span style=&quot;font-size: 64px;&quot;&gt;Try Again&lt;/span&gt;" style="rounded=0;whiteSpace=wrap;html=1;" parent="1" vertex="1">
          <mxGeometry x="2160" y="-890" width="480" height="150" as="geometry" />
        </mxCell>
        <mxCell id="hpcS94n02SvtDcmJyeEZ-3" style="edgeStyle=orthogonalEdgeStyle;rounded=0;orthogonalLoop=1;jettySize=auto;html=1;entryX=0;entryY=0.5;entryDx=0;entryDy=0;" parent="1" source="Pb9EnYuBDf2e-PehNu_Y-28" target="hpcS94n02SvtDcmJyeEZ-1" edge="1">
          <mxGeometry relative="1" as="geometry" />
        </mxCell>
        <mxCell id="hpcS94n02SvtDcmJyeEZ-8" value="&lt;span style=&quot;font-size: 64px;&quot;&gt;Group1&lt;/span&gt;&lt;div&gt;&lt;span style=&quot;font-size: 64px;&quot;&gt;Cheang Seyha&lt;/span&gt;&lt;/div&gt;&lt;div&gt;&lt;span style=&quot;font-size: 64px;&quot;&gt;Chhum Panha&lt;/span&gt;&lt;/div&gt;&lt;div&gt;&lt;span style=&quot;font-size: 64px;&quot;&gt;Chhon Pheakkdey&lt;/span&gt;&lt;/div&gt;" style="rounded=0;whiteSpace=wrap;html=1;" parent="1" vertex="1">
          <mxGeometry x="-3680" y="-1710" width="1240" height="490" as="geometry" />
        </mxCell>
        <mxCell id="hpcS94n02SvtDcmJyeEZ-9" value="&lt;font style=&quot;font-size: 100px;&quot;&gt;Student Management System&lt;/font&gt;" style="rounded=0;whiteSpace=wrap;html=1;" parent="1" vertex="1">
          <mxGeometry x="-2440" y="-1550" width="1930" height="150" as="geometry" />
        </mxCell>
        <mxCell id="x36sT1Pl3hfUKI-kdEFn-1" value="Customer" style="shape=table;startSize=30;container=1;collapsible=1;childLayout=tableLayout;fixedRows=1;rowLines=0;fontStyle=1;align=center;resizeLast=1;html=1;fillColor=#dae8fc;strokeColor=#6c8ebf;" parent="1" vertex="1">
          <mxGeometry x="950" y="-1960" width="180" height="180" as="geometry" />
        </mxCell>
        <mxCell id="x36sT1Pl3hfUKI-kdEFn-2" value="" style="shape=tableRow;horizontal=0;startSize=0;swimlaneHead=0;swimlaneBody=0;fillColor=none;collapsible=0;dropTarget=0;points=[[0,0.5],[1,0.5]];portConstraint=eastwest;top=0;left=0;right=0;bottom=1;" parent="x36sT1Pl3hfUKI-kdEFn-1" vertex="1">
          <mxGeometry y="30" width="180" height="30" as="geometry" />
        </mxCell>
        <mxCell id="x36sT1Pl3hfUKI-kdEFn-3" value="PK" style="shape=partialRectangle;connectable=0;fillColor=none;top=0;left=0;bottom=0;right=0;fontStyle=1;overflow=hidden;whiteSpace=wrap;html=1;" parent="x36sT1Pl3hfUKI-kdEFn-2" vertex="1">
          <mxGeometry width="30" height="30" as="geometry">
            <mxRectangle width="30" height="30" as="alternateBounds" />
          </mxGeometry>
        </mxCell>
        <mxCell id="x36sT1Pl3hfUKI-kdEFn-4" value="CustomerID" style="shape=partialRectangle;connectable=0;fillColor=none;top=0;left=0;bottom=0;right=0;align=left;spacingLeft=6;fontStyle=5;overflow=hidden;whiteSpace=wrap;html=1;" parent="x36sT1Pl3hfUKI-kdEFn-2" vertex="1">
          <mxGeometry x="30" width="150" height="30" as="geometry">
            <mxRectangle width="150" height="30" as="alternateBounds" />
          </mxGeometry>
        </mxCell>
        <mxCell id="x36sT1Pl3hfUKI-kdEFn-5" value="" style="shape=tableRow;horizontal=0;startSize=0;swimlaneHead=0;swimlaneBody=0;fillColor=none;collapsible=0;dropTarget=0;points=[[0,0.5],[1,0.5]];portConstraint=eastwest;top=0;left=0;right=0;bottom=0;" parent="x36sT1Pl3hfUKI-kdEFn-1" vertex="1">
          <mxGeometry y="60" width="180" height="30" as="geometry" />
        </mxCell>
        <mxCell id="x36sT1Pl3hfUKI-kdEFn-6" value="" style="shape=partialRectangle;connectable=0;fillColor=none;top=0;left=0;bottom=0;right=0;editable=1;overflow=hidden;whiteSpace=wrap;html=1;" parent="x36sT1Pl3hfUKI-kdEFn-5" vertex="1">
          <mxGeometry width="30" height="30" as="geometry">
            <mxRectangle width="30" height="30" as="alternateBounds" />
          </mxGeometry>
        </mxCell>
        <mxCell id="x36sT1Pl3hfUKI-kdEFn-7" value="Customer_Name" style="shape=partialRectangle;connectable=0;fillColor=none;top=0;left=0;bottom=0;right=0;align=left;spacingLeft=6;overflow=hidden;whiteSpace=wrap;html=1;" parent="x36sT1Pl3hfUKI-kdEFn-5" vertex="1">
          <mxGeometry x="30" width="150" height="30" as="geometry">
            <mxRectangle width="150" height="30" as="alternateBounds" />
          </mxGeometry>
        </mxCell>
        <mxCell id="x36sT1Pl3hfUKI-kdEFn-8" value="" style="shape=tableRow;horizontal=0;startSize=0;swimlaneHead=0;swimlaneBody=0;fillColor=none;collapsible=0;dropTarget=0;points=[[0,0.5],[1,0.5]];portConstraint=eastwest;top=0;left=0;right=0;bottom=0;" parent="x36sT1Pl3hfUKI-kdEFn-1" vertex="1">
          <mxGeometry y="90" width="180" height="30" as="geometry" />
        </mxCell>
        <mxCell id="x36sT1Pl3hfUKI-kdEFn-9" value="" style="shape=partialRectangle;connectable=0;fillColor=none;top=0;left=0;bottom=0;right=0;editable=1;overflow=hidden;whiteSpace=wrap;html=1;" parent="x36sT1Pl3hfUKI-kdEFn-8" vertex="1">
          <mxGeometry width="30" height="30" as="geometry">
            <mxRectangle width="30" height="30" as="alternateBounds" />
          </mxGeometry>
        </mxCell>
        <mxCell id="x36sT1Pl3hfUKI-kdEFn-10" value="Customer_Street" style="shape=partialRectangle;connectable=0;fillColor=none;top=0;left=0;bottom=0;right=0;align=left;spacingLeft=6;overflow=hidden;whiteSpace=wrap;html=1;" parent="x36sT1Pl3hfUKI-kdEFn-8" vertex="1">
          <mxGeometry x="30" width="150" height="30" as="geometry">
            <mxRectangle width="150" height="30" as="alternateBounds" />
          </mxGeometry>
        </mxCell>
        <mxCell id="x36sT1Pl3hfUKI-kdEFn-11" value="" style="shape=tableRow;horizontal=0;startSize=0;swimlaneHead=0;swimlaneBody=0;fillColor=none;collapsible=0;dropTarget=0;points=[[0,0.5],[1,0.5]];portConstraint=eastwest;top=0;left=0;right=0;bottom=0;" parent="x36sT1Pl3hfUKI-kdEFn-1" vertex="1">
          <mxGeometry y="120" width="180" height="30" as="geometry" />
        </mxCell>
        <mxCell id="x36sT1Pl3hfUKI-kdEFn-12" value="" style="shape=partialRectangle;connectable=0;fillColor=none;top=0;left=0;bottom=0;right=0;editable=1;overflow=hidden;whiteSpace=wrap;html=1;" parent="x36sT1Pl3hfUKI-kdEFn-11" vertex="1">
          <mxGeometry width="30" height="30" as="geometry">
            <mxRectangle width="30" height="30" as="alternateBounds" />
          </mxGeometry>
        </mxCell>
        <mxCell id="x36sT1Pl3hfUKI-kdEFn-13" value="Customer_City" style="shape=partialRectangle;connectable=0;fillColor=none;top=0;left=0;bottom=0;right=0;align=left;spacingLeft=6;overflow=hidden;whiteSpace=wrap;html=1;" parent="x36sT1Pl3hfUKI-kdEFn-11" vertex="1">
          <mxGeometry x="30" width="150" height="30" as="geometry">
            <mxRectangle width="150" height="30" as="alternateBounds" />
          </mxGeometry>
        </mxCell>
        <mxCell id="x36sT1Pl3hfUKI-kdEFn-14" value="" style="shape=tableRow;horizontal=0;startSize=0;swimlaneHead=0;swimlaneBody=0;fillColor=none;collapsible=0;dropTarget=0;points=[[0,0.5],[1,0.5]];portConstraint=eastwest;top=0;left=0;right=0;bottom=0;" parent="x36sT1Pl3hfUKI-kdEFn-1" vertex="1">
          <mxGeometry y="150" width="180" height="30" as="geometry" />
        </mxCell>
        <mxCell id="x36sT1Pl3hfUKI-kdEFn-15" value="" style="shape=partialRectangle;connectable=0;fillColor=none;top=0;left=0;bottom=0;right=0;editable=1;overflow=hidden;whiteSpace=wrap;html=1;" parent="x36sT1Pl3hfUKI-kdEFn-14" vertex="1">
          <mxGeometry width="30" height="30" as="geometry">
            <mxRectangle width="30" height="30" as="alternateBounds" />
          </mxGeometry>
        </mxCell>
        <mxCell id="x36sT1Pl3hfUKI-kdEFn-16" value="Customer_Postal" style="shape=partialRectangle;connectable=0;fillColor=none;top=0;left=0;bottom=0;right=0;align=left;spacingLeft=6;overflow=hidden;whiteSpace=wrap;html=1;" parent="x36sT1Pl3hfUKI-kdEFn-14" vertex="1">
          <mxGeometry x="30" width="150" height="30" as="geometry">
            <mxRectangle width="150" height="30" as="alternateBounds" />
          </mxGeometry>
        </mxCell>
        <mxCell id="x36sT1Pl3hfUKI-kdEFn-33" value="Invoice" style="shape=table;startSize=30;container=1;collapsible=1;childLayout=tableLayout;fixedRows=1;rowLines=0;fontStyle=1;align=center;resizeLast=1;html=1;whiteSpace=wrap;fillColor=#d5e8d4;strokeColor=#82b366;" parent="1" vertex="1">
          <mxGeometry x="1275" y="-1960" width="180" height="180" as="geometry" />
        </mxCell>
        <mxCell id="x36sT1Pl3hfUKI-kdEFn-34" value="" style="shape=tableRow;horizontal=0;startSize=0;swimlaneHead=0;swimlaneBody=0;fillColor=none;collapsible=0;dropTarget=0;points=[[0,0.5],[1,0.5]];portConstraint=eastwest;top=0;left=0;right=0;bottom=0;html=1;" parent="x36sT1Pl3hfUKI-kdEFn-33" vertex="1">
          <mxGeometry y="30" width="180" height="30" as="geometry" />
        </mxCell>
        <mxCell id="x36sT1Pl3hfUKI-kdEFn-35" value="PK" style="shape=partialRectangle;connectable=0;fillColor=none;top=0;left=0;bottom=0;right=0;fontStyle=1;overflow=hidden;html=1;whiteSpace=wrap;" parent="x36sT1Pl3hfUKI-kdEFn-34" vertex="1">
          <mxGeometry width="60" height="30" as="geometry">
            <mxRectangle width="60" height="30" as="alternateBounds" />
          </mxGeometry>
        </mxCell>
        <mxCell id="x36sT1Pl3hfUKI-kdEFn-36" value="Invoice_ID" style="shape=partialRectangle;connectable=0;fillColor=none;top=0;left=0;bottom=0;right=0;align=left;spacingLeft=6;fontStyle=5;overflow=hidden;html=1;whiteSpace=wrap;" parent="x36sT1Pl3hfUKI-kdEFn-34" vertex="1">
          <mxGeometry x="60" width="120" height="30" as="geometry">
            <mxRectangle width="120" height="30" as="alternateBounds" />
          </mxGeometry>
        </mxCell>
        <mxCell id="x36sT1Pl3hfUKI-kdEFn-37" value="" style="shape=tableRow;horizontal=0;startSize=0;swimlaneHead=0;swimlaneBody=0;fillColor=none;collapsible=0;dropTarget=0;points=[[0,0.5],[1,0.5]];portConstraint=eastwest;top=0;left=0;right=0;bottom=1;html=1;" parent="x36sT1Pl3hfUKI-kdEFn-33" vertex="1">
          <mxGeometry y="60" width="180" height="30" as="geometry" />
        </mxCell>
        <mxCell id="x36sT1Pl3hfUKI-kdEFn-38" value="FK" style="shape=partialRectangle;connectable=0;fillColor=none;top=0;left=0;bottom=0;right=0;fontStyle=1;overflow=hidden;html=1;whiteSpace=wrap;" parent="x36sT1Pl3hfUKI-kdEFn-37" vertex="1">
          <mxGeometry width="60" height="30" as="geometry">
            <mxRectangle width="60" height="30" as="alternateBounds" />
          </mxGeometry>
        </mxCell>
        <mxCell id="x36sT1Pl3hfUKI-kdEFn-39" value="Customer_ID" style="shape=partialRectangle;connectable=0;fillColor=none;top=0;left=0;bottom=0;right=0;align=left;spacingLeft=6;fontStyle=5;overflow=hidden;html=1;whiteSpace=wrap;" parent="x36sT1Pl3hfUKI-kdEFn-37" vertex="1">
          <mxGeometry x="60" width="120" height="30" as="geometry">
            <mxRectangle width="120" height="30" as="alternateBounds" />
          </mxGeometry>
        </mxCell>
        <mxCell id="x36sT1Pl3hfUKI-kdEFn-40" value="" style="shape=tableRow;horizontal=0;startSize=0;swimlaneHead=0;swimlaneBody=0;fillColor=none;collapsible=0;dropTarget=0;points=[[0,0.5],[1,0.5]];portConstraint=eastwest;top=0;left=0;right=0;bottom=0;html=1;" parent="x36sT1Pl3hfUKI-kdEFn-33" vertex="1">
          <mxGeometry y="90" width="180" height="30" as="geometry" />
        </mxCell>
        <mxCell id="x36sT1Pl3hfUKI-kdEFn-41" value="" style="shape=partialRectangle;connectable=0;fillColor=none;top=0;left=0;bottom=0;right=0;editable=1;overflow=hidden;html=1;whiteSpace=wrap;" parent="x36sT1Pl3hfUKI-kdEFn-40" vertex="1">
          <mxGeometry width="60" height="30" as="geometry">
            <mxRectangle width="60" height="30" as="alternateBounds" />
          </mxGeometry>
        </mxCell>
        <mxCell id="x36sT1Pl3hfUKI-kdEFn-42" value="Invoice_Date" style="shape=partialRectangle;connectable=0;fillColor=none;top=0;left=0;bottom=0;right=0;align=left;spacingLeft=6;overflow=hidden;html=1;whiteSpace=wrap;" parent="x36sT1Pl3hfUKI-kdEFn-40" vertex="1">
          <mxGeometry x="60" width="120" height="30" as="geometry">
            <mxRectangle width="120" height="30" as="alternateBounds" />
          </mxGeometry>
        </mxCell>
        <mxCell id="x36sT1Pl3hfUKI-kdEFn-43" value="" style="shape=tableRow;horizontal=0;startSize=0;swimlaneHead=0;swimlaneBody=0;fillColor=none;collapsible=0;dropTarget=0;points=[[0,0.5],[1,0.5]];portConstraint=eastwest;top=0;left=0;right=0;bottom=0;html=1;" parent="x36sT1Pl3hfUKI-kdEFn-33" vertex="1">
          <mxGeometry y="120" width="180" height="30" as="geometry" />
        </mxCell>
        <mxCell id="x36sT1Pl3hfUKI-kdEFn-44" value="" style="shape=partialRectangle;connectable=0;fillColor=none;top=0;left=0;bottom=0;right=0;editable=1;overflow=hidden;html=1;whiteSpace=wrap;" parent="x36sT1Pl3hfUKI-kdEFn-43" vertex="1">
          <mxGeometry width="60" height="30" as="geometry">
            <mxRectangle width="60" height="30" as="alternateBounds" />
          </mxGeometry>
        </mxCell>
        <mxCell id="x36sT1Pl3hfUKI-kdEFn-45" value="Sub_Total" style="shape=partialRectangle;connectable=0;fillColor=none;top=0;left=0;bottom=0;right=0;align=left;spacingLeft=6;overflow=hidden;html=1;whiteSpace=wrap;" parent="x36sT1Pl3hfUKI-kdEFn-43" vertex="1">
          <mxGeometry x="60" width="120" height="30" as="geometry">
            <mxRectangle width="120" height="30" as="alternateBounds" />
          </mxGeometry>
        </mxCell>
        <mxCell id="x36sT1Pl3hfUKI-kdEFn-46" value="" style="shape=tableRow;horizontal=0;startSize=0;swimlaneHead=0;swimlaneBody=0;fillColor=none;collapsible=0;dropTarget=0;points=[[0,0.5],[1,0.5]];portConstraint=eastwest;top=0;left=0;right=0;bottom=0;html=1;" parent="x36sT1Pl3hfUKI-kdEFn-33" vertex="1">
          <mxGeometry y="150" width="180" height="30" as="geometry" />
        </mxCell>
        <mxCell id="x36sT1Pl3hfUKI-kdEFn-47" value="" style="shape=partialRectangle;connectable=0;fillColor=none;top=0;left=0;bottom=0;right=0;editable=1;overflow=hidden;html=1;whiteSpace=wrap;" parent="x36sT1Pl3hfUKI-kdEFn-46" vertex="1">
          <mxGeometry width="60" height="30" as="geometry">
            <mxRectangle width="60" height="30" as="alternateBounds" />
          </mxGeometry>
        </mxCell>
        <mxCell id="x36sT1Pl3hfUKI-kdEFn-48" value="Tax_Rate" style="shape=partialRectangle;connectable=0;fillColor=none;top=0;left=0;bottom=0;right=0;align=left;spacingLeft=6;overflow=hidden;html=1;whiteSpace=wrap;" parent="x36sT1Pl3hfUKI-kdEFn-46" vertex="1">
          <mxGeometry x="60" width="120" height="30" as="geometry">
            <mxRectangle width="120" height="30" as="alternateBounds" />
          </mxGeometry>
        </mxCell>
        <mxCell id="x36sT1Pl3hfUKI-kdEFn-49" value="" style="edgeStyle=entityRelationEdgeStyle;fontSize=12;html=1;endArrow=ERoneToMany;startArrow=ERmandOne;rounded=0;entryX=0;entryY=0.5;entryDx=0;entryDy=0;exitX=1;exitY=0.5;exitDx=0;exitDy=0;" parent="1" source="x36sT1Pl3hfUKI-kdEFn-2" target="x36sT1Pl3hfUKI-kdEFn-34" edge="1">
          <mxGeometry width="100" height="100" relative="1" as="geometry">
            <mxPoint x="1129" y="-1860" as="sourcePoint" />
            <mxPoint x="1280" y="-1820" as="targetPoint" />
          </mxGeometry>
        </mxCell>
        <mxCell id="x36sT1Pl3hfUKI-kdEFn-50" value="InvoiceDetail" style="shape=table;startSize=30;container=1;collapsible=1;childLayout=tableLayout;fixedRows=1;rowLines=0;fontStyle=1;align=center;resizeLast=1;html=1;whiteSpace=wrap;fillColor=#ffe6cc;strokeColor=#d79b00;" parent="1" vertex="1">
          <mxGeometry x="1275" y="-1710" width="180" height="150" as="geometry" />
        </mxCell>
        <mxCell id="x36sT1Pl3hfUKI-kdEFn-51" value="" style="shape=tableRow;horizontal=0;startSize=0;swimlaneHead=0;swimlaneBody=0;fillColor=none;collapsible=0;dropTarget=0;points=[[0,0.5],[1,0.5]];portConstraint=eastwest;top=0;left=0;right=0;bottom=0;html=1;" parent="x36sT1Pl3hfUKI-kdEFn-50" vertex="1">
          <mxGeometry y="30" width="180" height="30" as="geometry" />
        </mxCell>
        <mxCell id="x36sT1Pl3hfUKI-kdEFn-52" value="PK,FK1" style="shape=partialRectangle;connectable=0;fillColor=none;top=0;left=0;bottom=0;right=0;fontStyle=1;overflow=hidden;html=1;whiteSpace=wrap;" parent="x36sT1Pl3hfUKI-kdEFn-51" vertex="1">
          <mxGeometry width="60" height="30" as="geometry">
            <mxRectangle width="60" height="30" as="alternateBounds" />
          </mxGeometry>
        </mxCell>
        <mxCell id="x36sT1Pl3hfUKI-kdEFn-53" value="Invoice_ID" style="shape=partialRectangle;connectable=0;fillColor=none;top=0;left=0;bottom=0;right=0;align=left;spacingLeft=6;fontStyle=5;overflow=hidden;html=1;whiteSpace=wrap;" parent="x36sT1Pl3hfUKI-kdEFn-51" vertex="1">
          <mxGeometry x="60" width="120" height="30" as="geometry">
            <mxRectangle width="120" height="30" as="alternateBounds" />
          </mxGeometry>
        </mxCell>
        <mxCell id="x36sT1Pl3hfUKI-kdEFn-54" value="" style="shape=tableRow;horizontal=0;startSize=0;swimlaneHead=0;swimlaneBody=0;fillColor=none;collapsible=0;dropTarget=0;points=[[0,0.5],[1,0.5]];portConstraint=eastwest;top=0;left=0;right=0;bottom=1;html=1;" parent="x36sT1Pl3hfUKI-kdEFn-50" vertex="1">
          <mxGeometry y="60" width="180" height="30" as="geometry" />
        </mxCell>
        <mxCell id="x36sT1Pl3hfUKI-kdEFn-55" value="PK,FK2" style="shape=partialRectangle;connectable=0;fillColor=none;top=0;left=0;bottom=0;right=0;fontStyle=1;overflow=hidden;html=1;whiteSpace=wrap;" parent="x36sT1Pl3hfUKI-kdEFn-54" vertex="1">
          <mxGeometry width="60" height="30" as="geometry">
            <mxRectangle width="60" height="30" as="alternateBounds" />
          </mxGeometry>
        </mxCell>
        <mxCell id="x36sT1Pl3hfUKI-kdEFn-56" value="Pet_ID" style="shape=partialRectangle;connectable=0;fillColor=none;top=0;left=0;bottom=0;right=0;align=left;spacingLeft=6;fontStyle=5;overflow=hidden;html=1;whiteSpace=wrap;" parent="x36sT1Pl3hfUKI-kdEFn-54" vertex="1">
          <mxGeometry x="60" width="120" height="30" as="geometry">
            <mxRectangle width="120" height="30" as="alternateBounds" />
          </mxGeometry>
        </mxCell>
        <mxCell id="x36sT1Pl3hfUKI-kdEFn-57" value="" style="shape=tableRow;horizontal=0;startSize=0;swimlaneHead=0;swimlaneBody=0;fillColor=none;collapsible=0;dropTarget=0;points=[[0,0.5],[1,0.5]];portConstraint=eastwest;top=0;left=0;right=0;bottom=0;html=1;" parent="x36sT1Pl3hfUKI-kdEFn-50" vertex="1">
          <mxGeometry y="90" width="180" height="30" as="geometry" />
        </mxCell>
        <mxCell id="x36sT1Pl3hfUKI-kdEFn-58" value="" style="shape=partialRectangle;connectable=0;fillColor=none;top=0;left=0;bottom=0;right=0;editable=1;overflow=hidden;html=1;whiteSpace=wrap;" parent="x36sT1Pl3hfUKI-kdEFn-57" vertex="1">
          <mxGeometry width="60" height="30" as="geometry">
            <mxRectangle width="60" height="30" as="alternateBounds" />
          </mxGeometry>
        </mxCell>
        <mxCell id="x36sT1Pl3hfUKI-kdEFn-59" value="Procedure" style="shape=partialRectangle;connectable=0;fillColor=none;top=0;left=0;bottom=0;right=0;align=left;spacingLeft=6;overflow=hidden;html=1;whiteSpace=wrap;" parent="x36sT1Pl3hfUKI-kdEFn-57" vertex="1">
          <mxGeometry x="60" width="120" height="30" as="geometry">
            <mxRectangle width="120" height="30" as="alternateBounds" />
          </mxGeometry>
        </mxCell>
        <mxCell id="x36sT1Pl3hfUKI-kdEFn-60" value="" style="shape=tableRow;horizontal=0;startSize=0;swimlaneHead=0;swimlaneBody=0;fillColor=none;collapsible=0;dropTarget=0;points=[[0,0.5],[1,0.5]];portConstraint=eastwest;top=0;left=0;right=0;bottom=0;html=1;" parent="x36sT1Pl3hfUKI-kdEFn-50" vertex="1">
          <mxGeometry y="120" width="180" height="30" as="geometry" />
        </mxCell>
        <mxCell id="x36sT1Pl3hfUKI-kdEFn-61" value="" style="shape=partialRectangle;connectable=0;fillColor=none;top=0;left=0;bottom=0;right=0;editable=1;overflow=hidden;html=1;whiteSpace=wrap;" parent="x36sT1Pl3hfUKI-kdEFn-60" vertex="1">
          <mxGeometry width="60" height="30" as="geometry">
            <mxRectangle width="60" height="30" as="alternateBounds" />
          </mxGeometry>
        </mxCell>
        <mxCell id="x36sT1Pl3hfUKI-kdEFn-62" value="Amount" style="shape=partialRectangle;connectable=0;fillColor=none;top=0;left=0;bottom=0;right=0;align=left;spacingLeft=6;overflow=hidden;html=1;whiteSpace=wrap;" parent="x36sT1Pl3hfUKI-kdEFn-60" vertex="1">
          <mxGeometry x="60" width="120" height="30" as="geometry">
            <mxRectangle width="120" height="30" as="alternateBounds" />
          </mxGeometry>
        </mxCell>
        <mxCell id="x36sT1Pl3hfUKI-kdEFn-63" value="" style="fontSize=12;html=1;endArrow=ERoneToMany;startArrow=ERmandOne;rounded=0;exitX=0.54;exitY=0.938;exitDx=0;exitDy=0;exitPerimeter=0;entryX=0.536;entryY=-0.003;entryDx=0;entryDy=0;entryPerimeter=0;" parent="1" target="x36sT1Pl3hfUKI-kdEFn-50" edge="1">
          <mxGeometry width="100" height="100" relative="1" as="geometry">
            <mxPoint x="1372.1999999999998" y="-1780" as="sourcePoint" />
            <mxPoint x="1370" y="-1710" as="targetPoint" />
          </mxGeometry>
        </mxCell>
        <mxCell id="x36sT1Pl3hfUKI-kdEFn-64" value="Pet" style="shape=table;startSize=30;container=1;collapsible=1;childLayout=tableLayout;fixedRows=1;rowLines=0;fontStyle=1;align=center;resizeLast=1;html=1;fillColor=#fff2cc;strokeColor=#d6b656;" parent="1" vertex="1">
          <mxGeometry x="950" y="-1710" width="180" height="90" as="geometry" />
        </mxCell>
        <mxCell id="x36sT1Pl3hfUKI-kdEFn-65" value="" style="shape=tableRow;horizontal=0;startSize=0;swimlaneHead=0;swimlaneBody=0;fillColor=none;collapsible=0;dropTarget=0;points=[[0,0.5],[1,0.5]];portConstraint=eastwest;top=0;left=0;right=0;bottom=1;" parent="x36sT1Pl3hfUKI-kdEFn-64" vertex="1">
          <mxGeometry y="30" width="180" height="30" as="geometry" />
        </mxCell>
        <mxCell id="x36sT1Pl3hfUKI-kdEFn-66" value="PK" style="shape=partialRectangle;connectable=0;fillColor=none;top=0;left=0;bottom=0;right=0;fontStyle=1;overflow=hidden;whiteSpace=wrap;html=1;" parent="x36sT1Pl3hfUKI-kdEFn-65" vertex="1">
          <mxGeometry width="30" height="30" as="geometry">
            <mxRectangle width="30" height="30" as="alternateBounds" />
          </mxGeometry>
        </mxCell>
        <mxCell id="x36sT1Pl3hfUKI-kdEFn-67" value="PetID" style="shape=partialRectangle;connectable=0;fillColor=none;top=0;left=0;bottom=0;right=0;align=left;spacingLeft=6;fontStyle=5;overflow=hidden;whiteSpace=wrap;html=1;" parent="x36sT1Pl3hfUKI-kdEFn-65" vertex="1">
          <mxGeometry x="30" width="150" height="30" as="geometry">
            <mxRectangle width="150" height="30" as="alternateBounds" />
          </mxGeometry>
        </mxCell>
        <mxCell id="x36sT1Pl3hfUKI-kdEFn-68" value="" style="shape=tableRow;horizontal=0;startSize=0;swimlaneHead=0;swimlaneBody=0;fillColor=none;collapsible=0;dropTarget=0;points=[[0,0.5],[1,0.5]];portConstraint=eastwest;top=0;left=0;right=0;bottom=0;" parent="x36sT1Pl3hfUKI-kdEFn-64" vertex="1">
          <mxGeometry y="60" width="180" height="30" as="geometry" />
        </mxCell>
        <mxCell id="x36sT1Pl3hfUKI-kdEFn-69" value="" style="shape=partialRectangle;connectable=0;fillColor=none;top=0;left=0;bottom=0;right=0;editable=1;overflow=hidden;whiteSpace=wrap;html=1;" parent="x36sT1Pl3hfUKI-kdEFn-68" vertex="1">
          <mxGeometry width="30" height="30" as="geometry">
            <mxRectangle width="30" height="30" as="alternateBounds" />
          </mxGeometry>
        </mxCell>
        <mxCell id="x36sT1Pl3hfUKI-kdEFn-70" value="Pet_Name" style="shape=partialRectangle;connectable=0;fillColor=none;top=0;left=0;bottom=0;right=0;align=left;spacingLeft=6;overflow=hidden;whiteSpace=wrap;html=1;" parent="x36sT1Pl3hfUKI-kdEFn-68" vertex="1">
          <mxGeometry x="30" width="150" height="30" as="geometry">
            <mxRectangle width="150" height="30" as="alternateBounds" />
          </mxGeometry>
        </mxCell>
        <mxCell id="x36sT1Pl3hfUKI-kdEFn-77" value="" style="edgeStyle=entityRelationEdgeStyle;fontSize=12;html=1;endArrow=ERoneToMany;startArrow=ERmandOne;rounded=0;exitX=1;exitY=0.5;exitDx=0;exitDy=0;entryX=0;entryY=0.5;entryDx=0;entryDy=0;" parent="1" source="x36sT1Pl3hfUKI-kdEFn-65" target="x36sT1Pl3hfUKI-kdEFn-51" edge="1">
          <mxGeometry width="100" height="100" relative="1" as="geometry">
            <mxPoint x="1120" y="-1670" as="sourcePoint" />
            <mxPoint x="1220" y="-1770" as="targetPoint" />
          </mxGeometry>
        </mxCell>
      </root>
    </mxGraphModel>
  </diagram>
</mxfile>
